# xmcd
#
# Track frame offsets:
#	150
#	12466
#	22505
#	32557
#	42627
#	51287
#	60358
#	70818
#	78759
#	90322
#	102102
#	112349
#	121321
#	129407
#	140929
#	150009
#	163241
#	174885
#	185197
#	195748
#	207109
#	217734
#	227938
#	237525
#	248507
#
# Disc length: 3478 seconds
#
# Revision: 2
# Processed by: cddbd v1.5.2PL0 Copyright (c) Steve Scherf et al.
# Submitted via: audiograbber 1.83.01
#
DISCID=4c0d9419
DTITLE=Conway Twitty - The Best Of  [CD2)
DYEAR=1900
DGENRE=Oldies
TTITLE0=Danny Boy
TTITLE1=Lonely Blue Boy
TTITLE2=Jailhouse Rock
TTITLE3=The Story Of My Love
TTITLE4=Great Balls Of Fire
TTITLE5=I'd Still Play The Fool
TTITLE6=Hallelujah I Love Her So
TTITLE7=Don't You Dare Let Me Down
TTITLE8=What Am I Living For
TTITLE9=Splish Splash
TTITLE10=Born To Sing The Blues
TTITLE11=I Vibrate (From My Heart)
TTITLE12=Hey Little Lucy
TTITLE13=You Never Walk Alone
TTITLE14=The Girl Can't Help It
TTITLE15=I'm In A Blue Blue Mood
TTITLE16=Diana
TTITLE17=You WIn Again
TTITLE18=Make Me Know You're Mine
TTITLE19=Portrait Of A Fool
TTITLE20=My One And Only You
TTITLE21=Halfway To Heaven
TTITLE22=Treat Me Nice
TTITLE23=Heavenly
TTITLE24=Long Black Train
EXTD=
EXTT0=
EXTT1=
EXTT2=
EXTT3=
EXTT4=
EXTT5=
EXTT6=
EXTT7=
EXTT8=
EXTT9=
EXTT10=
EXTT11=
EXTT12=
EXTT13=
EXTT14=
EXTT15=
EXTT16=
EXTT17=
EXTT18=
EXTT19=
EXTT20=
EXTT21=
EXTT22=
EXTT23=
EXTT24=
PLAYORDER=
